<svg xmlns="http://www.w3.org/2000/svg" version="1.1" xmlns:xlink="http://www.w3.org/1999/xlink" xmlns:svgjs="http://svgjs.dev/svgjs" width="100%" height="100%" viewBox="0 0 1000 600"><rect width="1000" height="600" x="0" y="0" fill="#ec4d37"/><g><circle r="166.66666666666666" cx="443.08158365885413" cy="429.3682164768911" fill="#1d1b1b" transform="matrix(0.5197952760042529,0,0,0.5197952760042529,-8.969762805961237,76.81643990954653)"/><path d="M257.7358635263289 501.0444748342168L257.7358635263289 485.1027437459457L262.81382806216817 485.1027437459457Q267.245506202537 485.1027437459457 269.12281430366545 483.10233347425145Q271.03089794743534 481.1019232025572 271.03089794743534 476.67024506218837L271.03089794743534 476.67024506218837L271.03089794743534 381.82002264123946Q271.03089794743534 377.63454884200223 269.12281430366545 375.72646519823235Q267.245506202537 373.8491570971039 262.81382806216817 373.8491570971039L262.81382806216817 373.8491570971039L257.7358635263289 373.8491570971039L257.7358635263289 357.69199721034266L321.5335634220548 357.69199721034266Q352.33988160614626 357.69199721034266 367.296795329891 376.5266293069101Q382.2537090536357 395.36126140347744 382.2537090536357 429.9221957898258L382.2537090536357 429.9221957898258Q382.2537090536357 462.2672911059898 366.86593773291065 481.6558829701033Q351.4473908695442 501.0444748342168 321.5335634220548 501.0444748342168L321.5335634220548 501.0444748342168L257.7358635263289 501.0444748342168ZM294.5126369828617 485.1027437459457L318.4252336152683 485.1027437459457Q340.15276672013204 485.1027437459457 349.6931849389816 471.34607618521756Q359.2028276151896 457.62018416713084 359.2028276151896 429.9221957898258L359.2028276151896 429.9221957898258Q359.2028276151896 401.5471454744089 349.6931849389816 387.60582465783204Q340.15276672013204 373.63372829861373 318.4252336152683 373.63372829861373L318.4252336152683 373.63372829861373L294.5126369828617 373.63372829861373L294.5126369828617 485.1027437459457ZM440.2963824754104 504.3682334394934Q424.7855089841196 504.3682334394934 410.8441881675427 499.93655529912456Q396.8720918083244 495.5048771587558 386.9008159924946 487.96486921160056L386.9008159924946 487.96486921160056L386.9008159924946 466.2681116493783L410.6287593690526 466.2681116493783L410.6287593690526 480.67106560557687Q416.1683570445136 483.9948242108535 424.23154921657346 485.9644589399063Q432.3255169312748 487.96486921160056 440.75801561503215 487.96486921160056L440.75801561503215 487.96486921160056Q454.05305003613853 487.96486921160056 460.91599604518194 482.3329449082152Q467.77894205422524 476.67024506218837 467.77894205422524 466.2681116493783L467.77894205422524 466.2681116493783Q467.77894205422524 458.94353250071316 464.1166524798927 454.0809967633641Q460.4851384482016 449.1876854833735 453.83762123764836 445.6484980796068Q447.19010402709523 442.10931067584005 435.43384673806133 437.46220373698105L435.43384673806133 437.46220373698105Q419.03048251016844 431.03011532491803 409.0592066943386 425.2750888509669Q399.0879308785088 419.48928683437424 393.6714353736136 411.64152346080454Q388.224164326077 403.76298454459334 388.224164326077 392.46836039518115L388.224164326077 392.46836039518115Q388.224164326077 373.63372829861373 402.62711828227555 364.0009834518399Q417.0300722384742 354.36823860506604 439.65009607994 354.36823860506604L439.65009607994 354.36823860506604Q454.48390763311886 354.36823860506604 466.79412468969883 358.55371240430327Q479.07356620363737 362.76996174618193 487.93692248437503 369.63290775522523L487.93692248437503 369.63290775522523L487.93692248437503 390.25252132499674L464.2397546504585 390.25252132499674L464.2397546504585 376.5266293069101Q454.48390763311886 370.74082729031744 438.54217654484773 370.74082729031744L438.54217654484773 370.74082729031744Q425.6779997207217 370.74082729031744 418.384196114698 375.84956736879815Q411.0596169660329 380.95830744727886 411.0596169660329 391.7912984570693L411.0596169660329 391.7912984570693Q411.0596169660329 399.3313064042245 415.7067239048919 404.4400464827052Q420.35383084375076 409.5180110185445 426.3550616588335 412.4109120268408Q432.3255169312748 415.30381303513707 444.9742649569108 420.38177757097634L444.9742649569108 420.38177757097634Q461.8084867817839 427.02929478152953 470.88727186101175 432.13803486001024Q479.96605694023947 437.2159993958495 485.2902258172103 445.0945383120607Q490.61439469418116 452.9730772282719 490.61439469418116 465.37562091277624L490.61439469418116 465.37562091277624Q490.61439469418116 476.67024506218837 484.7362660496642 485.4104991723602Q478.85813740514726 494.1815288251735 467.5635132557351 499.2594933610127Q456.26888910632294 504.3682334394934 440.2963824754104 504.3682334394934L440.2963824754104 504.3682334394934ZM505.2327774488699 501.0444748342168L505.2327774488699 484.8565394048141L511.2032327213112 484.8565394048141Q516.0965440013018 484.8565394048141 517.9738521024302 482.8869046757613Q519.8511602035587 480.88649440406704 519.8511602035587 476.67024506218837L519.8511602035587 476.67024506218837L519.8511602035587 382.06622698237106Q519.8511602035587 377.8499776404924 517.9738521024302 375.97266953936395Q516.0965440013018 374.06458589559406 511.2032327213112 374.06458589559406L511.2032327213112 374.06458589559406L505.2327774488699 374.06458589559406L505.2327774488699 357.69199721034266L581.2483677732514 357.69199721034266Q603.4067584750956 357.69199721034266 615.9016287875243 369.07894798767916Q628.4272746425943 380.49667430765714 628.4272746425943 401.7625742728991L628.4272746425943 401.7625742728991Q628.4272746425943 423.05924978078247 615.6861999890341 435.33869129472106Q602.9451253354737 447.64890835130103 581.0021634321199 447.64890835130103L581.0021634321199 447.64890835130103L543.3328992389852 447.64890835130103L543.3328992389852 476.67024506218837Q543.3328992389852 480.88649440406704 545.2409828827549 482.8869046757613Q547.1182909838833 484.8565394048141 551.9808267212325 484.8565394048141L551.9808267212325 484.8565394048141L557.7358531951836 484.8565394048141L557.7358531951836 501.0444748342168L505.2327774488699 501.0444748342168ZM543.3328992389852 431.2455441234082L577.924609167975 431.2455441234082Q591.8659299845517 431.2455441234082 598.6365493656708 424.0440671453089Q605.3763932041484 416.84259016720955 605.3763932041484 401.7625742728991L605.3763932041484 401.7625742728991Q605.3763932041484 386.49790512273984 598.9750803347267 380.281245509167Q592.5429919226635 374.06458589559406 577.924609167975 374.06458589559406L577.924609167975 374.06458589559406L543.3328992389852 374.06458589559406L543.3328992389852 431.2455441234082Z " fill="#ec4d37" transform="matrix(0.5197952760042529,0,0,0.5197952760042529,-8.969762805961237,76.81643990954653)"/><path d="M766.2042559674142 504.3682334394934Q742.937945730478 504.3682334394934 726.4114793320193 494.9509173912097Q709.9157884762021 485.53360134292603 701.4832897924448 468.7917061459772Q693.081566651329 452.08058649166986 693.081566651329 430.137624588316L693.081566651329 430.137624588316Q693.081566651329 407.979233886472 700.8370033969743 390.92958326310867Q708.5924401426198 373.8491570971039 724.3187424324008 364.09331007976425Q740.0450447221817 354.36823860506604 763.526783757608 354.36823860506604L763.526783757608 354.36823860506604Q779.2530860473889 354.36823860506604 790.8862411658571 357.3534662412867Q802.5193962843251 360.33869387750735 811.1673237665726 366.77078228957043L811.1673237665726 366.77078228957043L811.1673237665726 389.3600305883947L787.9010135296364 389.3600305883947L787.9010135296364 375.1725054306863Q777.9297377138066 370.74082729031744 763.526783757608 370.74082729031744L763.526783757608 370.74082729031744Q740.9375354587837 370.74082729031744 728.4118896037136 386.49790512273984Q715.8862437486434 402.2242074125208 715.8862437486434 430.137624588316L715.8862437486434 430.137624588316Q715.8862437486434 457.4047553686407 729.5198091388058 472.6694245187999Q743.1533745289681 487.96486921160056 767.0659711613748 487.96486921160056L767.0659711613748 487.96486921160056Q777.7143089153165 487.96486921160056 786.023705428508 485.9644589399063Q794.3331019416995 483.9948242108535 802.0885386873449 479.10151293086295L802.0885386873449 479.10151293086295L810.7364661695923 492.8581804915911Q800.9806191522526 499.2594933610127 790.6708123673669 501.81386340025307Q780.3610055824812 504.3682334394934 766.2042559674142 504.3682334394934L766.2042559674142 504.3682334394934ZM851.9449177664939 504.3682334394934Q834.2182052050186 504.3682334394934 825.0163179552251 496.612796693848Q815.8144307054316 488.8573599482026 815.8144307054316 474.6698347904941L815.8144307054316 474.6698347904941Q815.8144307054316 458.72810370222305 825.9088086918272 451.31119792563356Q836.0031866782228 443.8635166064027 855.0532475732804 442.5401682728203L855.0532475732804 442.5401682728203L886.074994555862 440.5397580011261L886.074994555862 427.02929478152953Q886.074994555862 416.62716136871944 881.6433164154931 411.98005442986044Q877.2116382751244 407.30217194836007 866.5633005211827 407.30217194836007L866.5633005211827 407.30217194836007Q859.269496915159 407.30217194836007 854.4992878057342 408.5331936540181Q849.7290786963094 409.7642153596761 845.728258152921 412.4109120268408L845.728258152921 412.4109120268408L845.728258152921 420.38177757097634L825.1394201257909 420.38177757097634L825.1394201257909 402.8704938079913Q843.7586234238682 391.36044086008894 867.0249336608044 391.36044086008894L867.0249336608044 391.36044086008894Q909.5567335912883 391.36044086008894 909.5567335912883 429.0297050532238L909.5567335912883 429.0297050532238L909.5567335912883 477.56273579879047Q909.5567335912883 481.99441393915924 911.2186128939267 483.9948242108535Q912.8804921965649 485.9644589399063 916.6351083988218 485.9644589399063L916.6351083988218 485.9644589399063L921.5284196788124 485.9644589399063L921.5284196788124 501.0444748342168L896.0462703716918 501.0444748342168L893.1533693633954 487.0723784749985Q886.074994555862 496.18193909686767 876.6576785075782 500.2750862681806Q867.2403624592946 504.3682334394934 851.9449177664939 504.3682334394934L851.9449177664939 504.3682334394934ZM857.2690866434648 488.42650235122227Q870.5641210645712 488.42650235122227 878.3195578102166 482.6407003346297Q886.074994555862 476.88567386067854 886.074994555862 465.1601921142861L886.074994555862 465.1601921142861L886.074994555862 454.5118543603444L856.807453503843 456.7276934305288Q845.9744624940527 457.4047553686407 841.758213152174 461.2824737414634Q837.5419638102953 465.1601921142861 837.5419638102953 473.56191525540197L837.5419638102953 473.56191525540197Q837.5419638102953 480.88649440406704 842.1890707491542 484.64111060632393Q846.8361776880132 488.42650235122227 857.2690866434648 488.42650235122227L857.2690866434648 488.42650235122227ZM933.9309633633168 501.0444748342168L933.9309633633168 484.64111060632393L940.3630517753797 484.64111060632393Q944.7947299157486 484.64111060632393 946.672038016877 482.6407003346297Q948.5493461180055 480.67106560557687 948.5493461180055 476.2393874652081L948.5493461180055 476.2393874652081L948.5493461180055 378.9578971755846Q948.5493461180055 374.741647833706 946.672038016877 372.8643397325775Q944.7947299157486 370.9870316314491 940.3630517753797 370.9870316314491L940.3630517753797 370.9870316314491L933.9309633633168 370.9870316314491L933.9309633633168 354.36823860506604L972.2772894945634 354.36823860506604L972.2772894945634 476.45481626369826Q972.2772894945634 480.67106560557687 974.2469242236161 482.6407003346297Q976.2473344953105 484.64111060632393 980.4635838371892 484.64111060632393L980.4635838371892 484.64111060632393L986.8956722492521 484.64111060632393L986.8956722492521 501.0444748342168L933.9309633633168 501.0444748342168ZM1056.232969820439 504.3682334394934Q1040.291238732168 504.3682334394934 1027.3347352801175 497.9361450274303Q1014.3782318280671 491.5040566153673 1006.8382238809118 478.8860841323728Q999.2982159337565 466.2681116493783 999.2982159337565 448.75682788639324L999.2982159337565 448.75682788639324Q999.2982159337565 420.8434107105981 1014.2551296575012 406.1019257853435Q1029.212043381246 391.36044086008894 1055.5866834249687 391.36044086008894L1055.5866834249687 391.36044086008894Q1069.989637381167 391.36044086008894 1079.745484398507 394.4687706668754Q1089.470555873205 397.57710047366186 1098.5801164950742 404.4400464827052L1098.5801164950742 404.4400464827052L1098.5801164950742 425.70594644794716L1077.9605029253028 425.70594644794716L1077.9605029253028 413.518831561933Q1072.851762846822 410.6259305536367 1068.2046559079631 409.5180110185445Q1063.5575489691041 408.4100914834523 1055.5866834249687 408.4100914834523L1055.5866834249687 408.4100914834523Q1040.7220963291484 408.4100914834523 1031.5509846219961 418.2890406713577Q1022.3490973722026 428.13721431662174 1022.3490973722026 448.75682788639324L1022.3490973722026 448.75682788639324Q1022.3490973722026 468.2377463784311 1032.8743329555787 477.6550624267148Q1043.3995685389543 487.0723784749985 1059.8029327668473 487.0723784749985L1059.8029327668473 487.0723784749985Q1069.989637381167 487.0723784749985 1077.1911143592665 485.31817254443587Q1084.392591337366 483.5331910712318 1090.824679749429 479.3169417293531L1090.824679749429 479.3169417293531L1099.0109740920545 492.8581804915911Q1089.7167602143365 499.2594933610127 1080.0532398249213 501.81386340025307Q1070.4204949781474 504.3682334394934 1056.232969820439 504.3682334394934L1056.232969820439 504.3682334394934ZM1157.0536475138292 504.3682334394934Q1138.8960773553738 504.3682334394934 1129.6018634776558 494.8278152206439Q1120.2768740572965 485.31817254443587 1120.2768740572965 467.59145998296066L1120.2768740572965 467.59145998296066L1120.2768740572965 419.27385803588413Q1120.2768740572965 415.05760869400547 1118.399565956168 413.0879739649527Q1116.5222578550397 411.0875636932584 1112.306008513161 411.0875636932584L1112.306008513161 411.0875636932584L1105.8739201010978 411.0875636932584L1105.8739201010978 394.68419946536557L1144.0048174338544 394.68419946536557L1144.0048174338544 467.3760311844705Q1144.0048174338544 488.8573599482026 1164.8090842594747 488.8573599482026L1164.8090842594747 488.8573599482026Q1176.1344839515282 488.8573599482026 1182.9974299605715 482.2098427376494Q1189.860375969615 475.5623255270962 1189.860375969615 463.1597818425918L1189.860375969615 463.1597818425918L1189.860375969615 419.27385803588413Q1189.860375969615 415.05760869400547 1188.1984966669766 413.0879739649527Q1186.5366173643383 411.0875636932584 1182.5357968209498 411.0875636932584L1182.5357968209498 411.0875636932584L1176.3499127500186 411.0875636932584L1176.3499127500186 394.68419946536557L1213.3421150050413 394.68419946536557L1213.3421150050413 476.45481626369826Q1213.3421150050413 480.67106560557687 1215.3425252767356 482.5483737067054Q1217.34293554843 484.42568180783377 1221.5591848903086 484.42568180783377L1221.5591848903086 484.42568180783377L1225.9908630306772 484.42568180783377L1225.9908630306772 501.0444748342168L1197.8312415137505 501.0444748342168L1196.5078931801681 486.6415208780182Q1189.4295183726347 495.9357347557361 1180.012202324351 500.15198409761473Q1170.5948862760674 504.3682334394934 1157.0536475138292 504.3682334394934L1157.0536475138292 504.3682334394934ZM1238.3934067151818 501.0444748342168L1238.3934067151818 484.64111060632393L1244.8254951272447 484.64111060632393Q1249.2571732676136 484.64111060632393 1251.134481368742 482.6407003346297Q1253.0117894698706 480.67106560557687 1253.0117894698706 476.2393874652081L1253.0117894698706 476.2393874652081L1253.0117894698706 378.9578971755846Q1253.0117894698706 374.741647833706 1251.134481368742 372.8643397325775Q1249.2571732676136 370.9870316314491 1244.8254951272447 370.9870316314491L1244.8254951272447 370.9870316314491L1238.3934067151818 370.9870316314491L1238.3934067151818 354.36823860506604L1276.708957303787 354.36823860506604L1276.708957303787 476.45481626369826Q1276.708957303787 480.67106560557687 1278.709367575481 482.6407003346297Q1280.7097778471755 484.64111060632393 1284.926027189054 484.64111060632393L1284.926027189054 484.64111060632393L1291.358115601117 484.64111060632393L1291.358115601117 501.0444748342168L1238.3934067151818 501.0444748342168ZM1337.6445317338578 504.3682334394934Q1319.917819172383 504.3682334394934 1310.7467074652307 496.612796693848Q1301.544820215437 488.8573599482026 1301.544820215437 474.6698347904941L1301.544820215437 474.6698347904941Q1301.544820215437 458.72810370222305 1311.6084226591913 451.31119792563356Q1321.7028006455869 443.8635166064027 1340.7528615406443 442.5401682728203L1340.7528615406443 442.5401682728203L1371.7746085232259 440.5397580011261L1371.7746085232259 427.02929478152953Q1371.7746085232259 416.62716136871944 1367.3429303828573 411.98005442986044Q1362.9112522424884 407.30217194836007 1352.2936900311881 407.30217194836007L1352.2936900311881 407.30217194836007Q1344.969110882523 407.30217194836007 1340.1989017730982 408.5331936540181Q1335.4286926636735 409.7642153596761 1331.4586476629265 412.4109120268408L1331.4586476629265 412.4109120268408L1331.4586476629265 420.38177757097634L1310.839034093155 420.38177757097634L1310.839034093155 402.8704938079913Q1329.4582373912324 391.36044086008894 1352.7245476281685 391.36044086008894L1352.7245476281685 391.36044086008894Q1395.2563475586524 391.36044086008894 1395.2563475586524 429.0297050532238L1395.2563475586524 429.0297050532238L1395.2563475586524 477.56273579879047Q1395.2563475586524 481.99441393915924 1396.9182268612906 483.9948242108535Q1398.580106163929 485.9644589399063 1402.3654979088271 485.9644589399063L1402.3654979088271 485.9644589399063L1407.2280336461765 485.9644589399063L1407.2280336461765 501.0444748342168L1381.7458843390557 501.0444748342168L1378.883758873401 487.0723784749985Q1371.7746085232259 496.18193909686767 1362.3572924749421 500.2750862681806Q1352.9399764266584 504.3682334394934 1337.6445317338578 504.3682334394934L1337.6445317338578 504.3682334394934ZM1342.9687006108288 488.42650235122227Q1356.2637350319353 488.42650235122227 1364.0191717775804 482.6407003346297Q1371.7746085232259 476.88567386067854 1371.7746085232259 465.1601921142861L1371.7746085232259 465.1601921142861L1371.7746085232259 454.5118543603444L1342.5378430138485 456.7276934305288Q1331.6740764614167 457.4047553686407 1327.457827119538 461.2824737414634Q1323.2415777776594 465.1601921142861 1323.2415777776594 473.56191525540197L1323.2415777776594 473.56191525540197Q1323.2415777776594 480.88649440406704 1327.91946025916 484.64111060632393Q1332.5665671980187 488.42650235122227 1342.9687006108288 488.42650235122227L1342.9687006108288 488.42650235122227ZM1459.5156805939998 504.3682334394934Q1441.1426816370542 504.3682334394934 1431.817692216695 495.2894483602657Q1422.5234783389772 486.2106632810379 1422.5234783389772 468.6993795180528L1422.5234783389772 468.6993795180528L1422.5234783389772 410.6259305536367L1405.2276233744822 410.6259305536367L1405.2276233744822 394.68419946536557L1422.5234783389772 394.68419946536557L1422.5234783389772 370.74082729031744L1446.0052173744034 363.23159488580364L1446.0052173744034 394.68419946536557L1477.919455093587 394.68419946536557L1477.919455093587 410.6259305536367L1446.0052173744034 410.6259305536367L1446.0052173744034 470.23815665012535Q1446.0052173744034 479.994003667465 1449.667506948736 484.2102530093436Q1453.3297965230686 488.42650235122227 1460.869804470224 488.42650235122227L1460.869804470224 488.42650235122227Q1470.594875944922 488.42650235122227 1475.7036160234027 484.2102530093436L1475.7036160234027 484.2102530093436L1475.7036160234027 474.6698347904941L1495.8615964535525 474.6698347904941L1495.8615964535525 491.5040566153673Q1488.5677928475288 497.7207162289402 1479.9198653652813 501.0444748342168Q1471.271937883034 504.3682334394934 1459.5156805939998 504.3682334394934L1459.5156805939998 504.3682334394934ZM1558.3667235583375 504.3682334394934Q1531.3150215765029 504.3682334394934 1517.5891295584163 489.53442188631453Q1503.832461997688 474.6698347904941 1503.832461997688 448.07976594828136L1503.832461997688 448.07976594828136Q1503.832461997688 421.2742683075784 1517.4660273878503 406.31735458383366Q1531.099592778013 391.36044086008894 1558.3667235583375 391.36044086008894L1558.3667235583375 391.36044086008894Q1585.6030787960206 391.36044086008894 1599.236644186183 406.31735458383366Q1612.8702095763454 421.2742683075784 1612.8702095763454 448.07976594828136L1612.8702095763454 448.07976594828136Q1612.8702095763454 474.6698347904941 1599.1135420156172 489.53442188631453Q1585.3876499975306 504.3682334394934 1558.3667235583375 504.3682334394934L1558.3667235583375 504.3682334394934ZM1558.3667235583375 487.7494404131104Q1574.3084546466087 487.7494404131104 1582.063891392254 477.99359339577074Q1589.8193281378992 468.2377463784311 1589.8193281378992 448.07976594828136L1589.8193281378992 448.07976594828136Q1589.8193281378992 427.7063567196414 1582.063891392254 417.82740753173596Q1574.3084546466087 407.979233886472 1558.3667235583375 407.979233886472L1558.3667235583375 407.979233886472Q1542.3942169274248 407.979233886472 1534.7618823523453 417.82740753173596Q1527.0987722346242 427.7063567196414 1527.0987722346242 448.07976594828136L1527.0987722346242 448.07976594828136Q1527.0987722346242 468.2377463784311 1534.7618823523453 477.99359339577074Q1542.3942169274248 487.7494404131104 1558.3667235583375 487.7494404131104L1558.3667235583375 487.7494404131104ZM1627.4885923310342 501.0444748342168L1627.4885923310342 484.64111060632393L1633.028190006495 484.64111060632393Q1637.459868146864 484.64111060632393 1639.3371762479926 482.7638025051955Q1641.2144843491208 480.88649440406704 1641.2144843491208 476.45481626369826L1641.2144843491208 476.45481626369826L1641.2144843491208 419.27385803588413Q1641.2144843491208 415.05760869400547 1639.460278418558 413.0879739649527Q1637.6752969453541 411.0875636932584 1633.4590476034753 411.0875636932584L1633.4590476034753 411.0875636932584L1628.8119406646167 411.0875636932584L1628.8119406646167 394.68419946536557L1659.4028300502177 394.68419946536557L1662.511159857004 406.8713143513798Q1666.942837997373 400.00836834233644 1673.8981106343406 397.33089613253026Q1680.88415881395 394.68419946536557 1690.4245770327993 394.68419946536557L1690.4245770327993 394.68419946536557L1700.6112816471193 394.68419946536557L1700.6112816471193 411.0875636932584L1688.2087379626153 411.0875636932584Q1675.559989936979 411.0875636932584 1670.2665966026495 416.71948799664375Q1664.9424277256787 422.3821878426706 1664.9424277256787 434.1384451317045L1664.9424277256787 434.1384451317045L1664.9424277256787 476.45481626369826Q1664.9424277256787 480.88649440406704 1666.6966336562414 482.7638025051955Q1668.4816151294456 484.64111060632393 1672.6978644713242 484.64111060632393L1672.6978644713242 484.64111060632393L1678.2374621467852 484.64111060632393L1678.2374621467852 501.0444748342168L1627.4885923310342 501.0444748342168Z " fill="#1d1b1b" transform="matrix(0.5197952760042529,0,0,0.5197952760042529,-8.969762805961237,76.81643990954653)"/></g></svg>